<?xml version="1.0" encoding="UTF-8" standalone="no"?>
<!-- Created with Inkscape (http://www.inkscape.org/) -->

<svg
   width="36.508316mm"
   height="10.452736mm"
   viewBox="0 0 36.508316 10.452736"
   version="1.1"
   id="svg5"
   inkscape:version="1.1.1 (3bf5ae0d25, 2021-09-20)"
   sodipodi:docname="Logo_BP_SVG_4_kerning.svg"
   xmlns:inkscape="http://www.inkscape.org/namespaces/inkscape"
   xmlns:sodipodi="http://sodipodi.sourceforge.net/DTD/sodipodi-0.dtd"
   xmlns="http://www.w3.org/2000/svg"
   xmlns:svg="http://www.w3.org/2000/svg">
  <sodipodi:namedview
     id="namedview7"
     pagecolor="#ffffff"
     bordercolor="#666666"
     borderopacity="1.0"
     inkscape:pageshadow="2"
     inkscape:pageopacity="0.0"
     inkscape:pagecheckerboard="0"
     inkscape:document-units="mm"
     showgrid="false"
     inkscape:zoom="2.0208096"
     inkscape:cx="36.866413"
     inkscape:cy="-7.6701933"
     inkscape:window-width="1920"
     inkscape:window-height="991"
     inkscape:window-x="-9"
     inkscape:window-y="-9"
     inkscape:window-maximized="1"
     inkscape:current-layer="layer1" />
  <defs
     id="defs2">
    <rect
       x="65.783569"
       y="148.36295"
       width="156.13373"
       height="56.432472"
       id="rect18465" />
    <rect
       x="46.188465"
       y="177.75562"
       width="683.02942"
       height="312.12207"
       id="rect2806" />
  </defs>
  <g
     inkscape:label="Laag 1"
     inkscape:groupmode="layer"
     id="layer1"
     transform="translate(-17.80025,-40.311043)">
    <text
       xml:space="preserve"
       transform="scale(0.26458333)"
       id="text2804"
       style="font-style:normal;font-variant:normal;font-weight:500;font-stretch:normal;font-size:53.3333px;line-height:1.25;font-family:'Chivo Mono';-inkscape-font-specification:'Chivo Mono, Medium';font-variant-ligatures:normal;font-variant-caps:normal;font-variant-numeric:normal;font-variant-east-asian:normal;white-space:pre;shape-inside:url(#rect2806)" />
    <g
       aria-label="EVERYDAY LIZARDRY"
       transform="matrix(0.26458333,0,0,0.24560674,0,3.6409083)"
       id="text18463"
       style="font-size:26.6667px;line-height:0.85;letter-spacing:2px;white-space:pre;shape-inside:url(#rect18465)">
      <path
         d="m 71.089876,164.66425 h 9.066679 v 3.52001 H 67.409872 V 149.4909 h 12.293349 v 3.52001 h -8.613345 v 3.89333 h 7.173343 v 3.62668 h -7.173343 z"
         style="fill:#8bd1c8"
         id="path33121" />
      <path
         d="m 95.116532,149.4909 h 4.133338 l -5.226673,18.69336 H 89.543191 L 84.316518,149.4909 h 4.106672 l 3.386671,13.52002 z"
         style="fill:#8bd1c8"
         id="path33123" />
      <path
         d="m 107.08984,164.66425 h 9.06668 v 3.52001 H 103.40983 V 149.4909 h 12.29335 v 3.52001 h -8.61334 v 3.89333 h 7.17334 v 3.62668 h -7.17334 z"
         style="fill:#8bd1c8"
         id="path33125" />
      <path
         d="m 127.24982,161.75758 q -0.64,0.13334 -1.41334,0.16 -0.74666,0.0267 -1.52,0.0267 v 6.24001 h -3.81334 v -18.24002 q 1.54667,-0.32 2.82667,-0.48 1.30667,-0.16 2.29334,-0.16 1.62667,0 3.04,0.32 1.44001,0.32 2.50667,1.04 1.06667,0.72 1.65334,1.89333 0.61333,1.14667 0.61333,2.80001 0,1.84 -0.77333,3.09333 -0.77334,1.22667 -1.81334,1.97334 l 4.21334,7.76001 h -4.32 z m -2.93334,-3.17333 h 0.4 q 2.74667,0 3.86667,-0.77334 1.12,-0.8 1.12,-2.32 0,-0.8 -0.32,-1.33334 -0.32,-0.53333 -0.88,-0.85333 -0.53333,-0.32 -1.25333,-0.45333 -0.72,-0.13334 -1.49334,-0.13334 -0.69333,0 -1.44,0.08 z"
         style="fill:#8bd1c8"
         id="path33127" />
      <path
         d="m 143.54533,162.23758 -5.46668,-12.74668 h 4.13334 l 3.22667,8.98668 3.25334,-8.98668 h 4.05334 l -5.46667,12.66668 v 6.02668 h -3.70668 z"
         style="fill:#8bd1c8"
         id="path33129" />
      <path
         d="m 170.76979,158.85091 q 0,2.85334 -0.77333,4.69334 -0.77334,1.84001 -2.08001,2.90667 -1.30667,1.06667 -3.06667,1.49334 -1.76,0.42667 -3.70667,0.42667 -0.74667,0 -1.89334,-0.13334 -1.14666,-0.13333 -2.45333,-0.37333 v -17.92002 q 2.37333,-0.58667 4.48,-0.58667 2.13334,0 3.86668,0.53333 1.76,0.53334 3.01333,1.68 1.25334,1.14667 1.92001,2.96001 0.69333,1.78667 0.69333,4.32 z m -10.21335,5.76001 q 0.58667,0.08 1.17334,0.08 2.58667,0 3.94667,-1.46667 1.36,-1.46667 1.36,-4.37334 0,-3.12 -1.46667,-4.48 -1.44,-1.38667 -4.18667,-1.38667 -0.21333,0 -0.42667,0 -0.18666,0 -0.4,0.0267 z"
         style="fill:#8bd1c8"
         id="path33131" />
      <path
         d="m 184.07643,163.70425 h -4.64001 l -1.04,4.48001 h -3.81334 l 4.53334,-18.69336 h 5.06667 l 4.80001,18.69336 h -3.89334 z m -3.81334,-3.36 h 2.88 l -1.54667,-7.06668 z"
         style="fill:#8bd1c8"
         id="path33133" />
      <path
         d="m 196.06071,162.23758 -5.46668,-12.74668 h 4.13334 l 3.22667,8.98668 3.25334,-8.98668 h 4.05334 l -5.46668,12.66668 v 6.02668 h -3.70667 z"
         style="fill:#8bd1c8"
         id="path33135" />
      <path
         d="m 71.06321,172.98307 v 15.33336 h 9.226678 v 3.36 h -13.01335 v -18.69336 z"
         style="fill:#f0f0f0"
         id="path33137" />
      <path
         d="m 85.116519,172.98307 h 13.280017 v 3.36001 h -4.666673 v 11.97335 h 4.906673 v 3.36 H 84.903185 v -3.36 h 5.09334 v -11.97335 h -4.880006 z"
         style="fill:#f0f0f0"
         id="path33139" />
      <path
         d="m 103.80983,172.98307 h 12.34669 v 2.40001 l -8.05335,12.93335 h 8.29335 v 3.36 h -13.25335 v -2.4 l 8.08001,-12.93335 h -7.41335 z"
         style="fill:#f0f0f0"
         id="path33141" />
      <path
         d="m 130.07649,187.19643 h -4.64001 l -1.04,4.48 h -3.81334 l 4.53334,-18.69336 h 5.06668 l 4.8,18.69336 h -3.89334 z m -3.81334,-3.36001 h 2.88 l -1.54666,-7.06667 z"
         style="fill:#f0f0f0"
         id="path33143" />
      <path
         d="m 145.2498,185.24976 q -0.64,0.13333 -1.41333,0.16 -0.74667,0.0267 -1.52,0.0267 v 6.24001 h -3.81334 v -18.24002 q 1.54667,-0.32 2.82667,-0.48 1.30667,-0.16 2.29333,-0.16 1.62667,0 3.04001,0.32 1.44,0.32 2.50667,1.04 1.06667,0.72 1.65333,1.89333 0.61334,1.14667 0.61334,2.80001 0,1.84 -0.77334,3.09334 -0.77333,1.22666 -1.81333,1.97333 l 4.21334,7.76001 h -4.32001 z m -2.93333,-3.17334 h 0.4 q 2.74667,0 3.86667,-0.77334 1.12,-0.8 1.12,-2.32 0,-0.8 -0.32,-1.33333 -0.32,-0.53334 -0.88,-0.85334 -0.53334,-0.32 -1.25334,-0.45333 -0.72,-0.13333 -1.49333,-0.13333 -0.69334,0 -1.44,0.08 z"
         style="fill:#f0f0f0"
         id="path33145" />
      <path
         d="m 170.76979,182.34309 q 0,2.85333 -0.77333,4.69334 -0.77334,1.84 -2.08001,2.90667 -1.30667,1.06666 -3.06667,1.49333 -1.76,0.42667 -3.70667,0.42667 -0.74667,0 -1.89334,-0.13334 -1.14666,-0.13333 -2.45333,-0.37333 v -17.92002 q 2.37333,-0.58667 4.48,-0.58667 2.13334,0 3.86668,0.53333 1.76,0.53334 3.01333,1.68001 1.25334,1.14667 1.92001,2.96 0.69333,1.78667 0.69333,4.32001 z m -10.21335,5.76 q 0.58667,0.08 1.17334,0.08 2.58667,0 3.94667,-1.46667 1.36,-1.46666 1.36,-4.37333 0,-3.12001 -1.46667,-4.48001 -1.44,-1.38667 -4.18667,-1.38667 -0.21333,0 -0.42667,0 -0.18666,0 -0.4,0.0267 z"
         style="fill:#f0f0f0"
         id="path33147" />
      <path
         d="m 181.24976,185.24976 q -0.64,0.13333 -1.41334,0.16 -0.74667,0.0267 -1.52,0.0267 v 6.24001 h -3.81334 v -18.24002 q 1.54667,-0.32 2.82667,-0.48 1.30667,-0.16 2.29334,-0.16 1.62667,0 3.04,0.32 1.44,0.32 2.50667,1.04 1.06667,0.72 1.65334,1.89333 0.61333,1.14667 0.61333,2.80001 0,1.84 -0.77333,3.09334 -0.77334,1.22666 -1.81334,1.97333 l 4.21334,7.76001 h -4.32001 z m -2.93334,-3.17334 h 0.4 q 2.74667,0 3.86667,-0.77334 1.12,-0.8 1.12,-2.32 0,-0.8 -0.32,-1.33333 -0.32,-0.53334 -0.88,-0.85334 -0.53333,-0.32 -1.25333,-0.45333 -0.72,-0.13333 -1.49334,-0.13333 -0.69333,0 -1.44,0.08 z"
         style="fill:#f0f0f0"
         id="path33149" />
      <path
         d="m 196.06071,185.72976 -5.46668,-12.74669 h 4.13334 l 3.22667,8.98668 3.25334,-8.98668 h 4.05334 l -5.46668,12.66669 v 6.02667 h -3.70667 z"
         style="fill:#f0f0f0"
         id="path33151" />
    </g>
  </g>
</svg>
